<?xml version="1.0" encoding="utf-8"?>
<svg xmlns="http://www.w3.org/2000/svg" viewBox="642.3 3706.6 50000 6000" width="5000px" height="600px" xmlns:bx="https://boxy-svg.com">
  <defs>
    <bx:export>
      <bx:file format="svg"/>
    </bx:export>
  </defs>
  <rect style="stroke: rgb(0, 0, 0); fill: rgb(245, 245, 245);" x="673.7" y="3715.51" width="49937.199" height="5982.18" rx="200" ry="200"/>
  <g transform="matrix(1, 0, 0, 1, 12493.575195, 660.067505)">
    <path id="pjw4thGkQ" d="M 8661.47 7370.11 C 8654 7353.31 8648.4 6802.51 8648.4 6145.26 L 8648.4 4952.14 L 8963.95 4952.14 L 9279.5 4952.14 L 9313.1 5004.43 C 9346.7 5052.97 9518.5 5364.79 9852.7 5984.68 C 9946.1 6156.47 10024.5 6296.5 10030.1 6296.5 C 10035.7 6296.5 10065.6 6247.96 10097.3 6188.21 C 10127.2 6130.33 10295.2 5827.85 10468.9 5517.89 L 10784.4 4952.14 L 11098.1 4952.14 L 11411.8 4952.14 L 11411.8 6171.4 L 11411.8 7390.65 L 11103.7 7390.65 L 10795.6 7388.8 L 10791.9 6767.02 L 10786.3 6145.26 L 10610.8 6477.61 C 10513.7 6660.6 10394.2 6882.79 10343.8 6974.29 L 10252.3 7136.72 L 10028.2 7136.72 L 9806 7136.72 L 9757.5 7048.97 C 9731.4 6998.55 9615.6 6783.83 9501.7 6567.23 L 9292.6 6175.14 L 9287 6778.22 L 9283.2 7379.46 L 9089.05 7379.46 C 8982.62 7379.46 8846.32 7385.05 8784.7 7390.65 C 8689.48 7401.86 8670.81 7398.13 8661.47 7370.11 Z" style="paint-order: fill; stroke-linecap: round; stroke-linejoin: round; stroke-width: 10px;"/>
    <path id="p2xzpFdXS" d="M 11886.1 7381.33 C 11882.3 7377.59 11878.6 6828.64 11878.6 6162.06 L 11878.6 4952.14 L 12192.3 4955.88 L 12504.1 4961.47 L 12509.7 6175.14 L 12513.4 7390.65 L 12203.5 7388.8 C 12033.6 7388.8 11889.8 7385.05 11886.1 7381.33 Z" style="paint-order: fill; stroke-linecap: round; stroke-linejoin: round; stroke-width: 10px;"/>
    <path id="pOauIQRQT" d="M 12980.2 6177.01 L 12980.2 4952.14 L 13247.2 4952.14 L 13514.2 4952.14 L 13562.8 5004.43 C 13588.9 5032.43 13732.7 5202.35 13878.3 5383.46 C 14025.8 5562.71 14251.8 5837.18 14380.6 5992.15 L 14614 6275.97 L 14619.6 5613.11 L 14623.3 4952.14 L 14940.7 4952.14 L 15258.2 4952.14 L 15254.4 6171.4 L 15248.8 7388.8 L 14968.8 7381.33 L 14688.7 7373.85 L 14625.2 7301.04 C 14591.6 7261.83 14419.8 7050.84 14244.3 6832.38 C 14070.6 6613.92 13854.1 6348.79 13766.3 6242.35 L 13605.7 6048.17 L 13600.1 6714.75 L 13596.4 7379.46 L 13430.2 7379.46 C 13340.6 7379.46 13202.4 7385.05 13124 7390.65 L 12980.2 7403.72 L 12980.2 6177.01 Z" style="paint-order: fill; stroke-linecap: round; stroke-linejoin: round; stroke-width: 10px;"/>
    <path id="pFFHncnNH" d="M 15715.6 7375.72 C 15710 7360.79 15708.1 6813.71 15710 6156.47 L 15715.6 4961.47 L 16038.6 4955.88 L 16359.8 4952.14 L 16356.1 6169.54 L 16350.5 7388.8 L 16036.8 7394.39 C 15794 7398.13 15721.2 7394.39 15715.6 7375.72 Z" style="paint-order: fill; stroke-linecap: round; stroke-linejoin: round; stroke-width: 10px;"/>
    <path id="p15P74hfwd" d="M 19913 7366.39 C 19907.4 7353.31 19907.4 7071.38 19911.2 6739.01 L 19916.8 6135.93 L 19679.6 6574.71 C 19548.9 6817.43 19425.7 7043.36 19405.2 7076.97 L 19365.9 7136.72 L 19143.7 7136.72 L 18923.4 7136.72 L 18777.8 6862.26 C 18695.6 6709.14 18576.1 6485.09 18508.9 6361.85 L 18385.7 6135.93 L 18391.3 6757.69 L 18396.9 7379.46 L 18079.5 7379.46 L 17760.2 7379.46 L 17760.2 6165.8 L 17760.2 4952.14 L 18077.6 4952.14 L 18396.9 4952.14 L 18424.9 5004.43 C 18818.9 5723.29 19126.9 6270.35 19140 6274.1 C 19153.1 6277.83 19463 5743.81 19787.9 5153.8 L 19898.1 4952.14 L 20209.9 4952.14 L 20519.8 4952.14 L 20532.9 5125.79 C 20538.5 5219.14 20542.3 5768.1 20538.5 6343.18 L 20532.9 7388.8 L 20226.7 7388.8 C 19997 7390.65 19920.5 7385.05 19913 7366.39 Z" style="paint-order: fill; stroke-linecap: round; stroke-linejoin: round; stroke-width: 10px;"/>
    <path id="prAFT1A09" d="M 21537.5 7379.46 C 21289.1 7343.98 21126.7 7233.81 21029.6 7041.5 C 20940 6860.39 20932.5 6785.69 20938.1 6106.05 C 20943.7 5499.22 20945.6 5482.42 20988.5 5372.26 C 21050.1 5221.01 21203.2 5067.9 21354.5 5006.29 C 21466.5 4961.47 21470.2 4961.47 22256.3 4955.88 L 23044.3 4950.27 L 23044.3 5232.22 L 23044.3 5512.3 L 22407.6 5512.3 C 21787.7 5512.3 21767.1 5514.15 21703.6 5553.36 C 21584.1 5628.05 21569.2 5689.68 21569.2 6165.8 C 21569.2 6640.05 21584.1 6709.14 21703.6 6781.97 C 21761.5 6817.43 21797 6819.3 22405.7 6819.3 L 23044.3 6819.3 L 23044.3 7108.72 L 23044.3 7398.13 L 22340.3 7396.26 C 21952 7394.39 21591.6 7386.93 21537.5 7379.46 Z" style="paint-order: fill; stroke-linecap: round; stroke-linejoin: round; stroke-width: 10px;"/>
    <path id="p6LSudM6s" d="M 23380.3 6175.14 L 23380.3 4952.14 L 24218.7 4952.14 C 25008.5 4952.14 25064.5 4954.01 25180.3 4989.48 C 25396.9 5056.71 25535.1 5198.6 25592.9 5409.6 C 25619.1 5502.96 25622.8 5592.58 25617.2 5913.73 C 25611.6 6298.36 25609.7 6307.71 25559.3 6412.26 C 25492.1 6548.56 25370.7 6655 25223.2 6709.14 C 25114.9 6748.35 25070.1 6752.09 24562.3 6759.55 L 24015.2 6767.02 L 24015.2 7080.71 L 24015.2 7392.52 L 23697.8 7396.26 L 23380.3 7398.13 L 23380.3 6175.14 Z M 24881.5 6156.47 C 24958.1 6106.05 24986.1 6022.02 24986.1 5848.39 C 24986.1 5682.21 24961.8 5614.98 24881.5 5551.51 C 24834.9 5514.15 24808.7 5512.3 24424.1 5512.3 L 24015.2 5512.3 L 24015.2 5859.59 L 24015.2 6205.01 L 24422.2 6199.4 C 24788.2 6193.8 24833 6190.08 24881.5 6156.47 Z" style="paint-order: fill; stroke-linecap: round; stroke-linejoin: round; stroke-width: 10px;"/>
    <path id="pjSuB1a9S" d="M 939.625 8357.27 C 829.625 8328.27 743.625 8253.27 704.625 8151.27 C 682.625 8096.27 682.625 8085.27 678.625 7290.27 C 676.625 6847.27 679.625 6157.27 684.625 5755.27 L 693.625 5025.27 L 718.625 4920.27 C 809.625 4543.27 1002.63 4247.27 1305.63 4021.27 C 1479.63 3890.27 1722.63 3785.27 1945.63 3744.27 C 2080.63 3719.27 2411.63 3719.27 2550.63 3744.27 C 2734.63 3777.27 2952.63 3860.27 3075.63 3943.27 C 3215.63 4037.27 3244.63 4068.27 3571.63 4465.27 C 3652.63 4564.27 3827.63 4776.27 3960.63 4935.27 C 4092.63 5095.27 4227.63 5258.27 4259.63 5299.27 C 4333.63 5389.27 4376.63 5420.27 4430.63 5420.27 C 4597.63 5420.27 4714.63 5481.27 4776.63 5600.27 C 4798.63 5641.27 4800.63 5658.27 4800.63 5775.27 C 4800.63 5899.27 4799.63 5908.27 4771.63 5963.27 C 4735.63 6033.27 4682.63 6083.27 4608.63 6117.27 C 4554.63 6142.27 4549.63 6142.27 4376.63 6137.27 C 4173.63 6131.27 4126.63 6121.27 3985.63 6053.27 C 3904.63 6014.27 3877.63 5994.27 3800.63 5916.27 C 3750.63 5866.27 3606.63 5699.27 3480.63 5546.27 C 2666.63 4556.27 2710.63 4605.27 2561.63 4534.27 C 2338.63 4428.27 2098.63 4437.27 1865.63 4562.27 C 1659.63 4672.27 1501.63 4867.27 1439.63 5090.27 C 1422.63 5151.27 1420.63 5242.27 1415.63 6625.27 L 1410.63 8095.27 L 1387.63 8152.27 C 1355.63 8232.27 1290.63 8301.27 1216.63 8334.27 C 1142.63 8367.27 1018.63 8377.27 939.625 8357.27 Z" style="paint-order: fill; stroke-linecap: round; stroke-linejoin: round; stroke-width: 10px;"/>
    <path id="pB5og2ydr" d="M 5146.63 8359.27 C 5040.63 8341.27 4869.28 8238.06 4870.63 8115.27 C 4873.32 7868.28 4870.63 7330.27 4870.63 7330.27 C 4870.63 7330.27 4874.85 6813.71 4870.63 6545.27 C 4869.14 6450.7 5000.63 6366.27 5063.63 6337.27 C 5103.63 6318.27 5128.63 6315.27 5230.63 6315.27 C 5339.63 6315.27 5355.63 6317.27 5406.63 6341.27 C 5475.63 6374.27 5533.63 6429.27 5565.63 6495.27 C 5589.63 6543.27 5590.63 6555.27 5593.63 6758.27 L 5596.63 6971.27 L 5878.63 6968.27 L 6160.63 6965.27 L 6227.63 6933.27 C 6350.63 6875.27 6438.63 6767.27 6465.63 6640.27 C 6473.63 6600.27 6476.63 6399.27 6473.63 5905.27 C 6473.63 5905.27 6482.96 5358.15 6442.63 5137.27 C 6403.96 4925.5 6070.63 4550.27 5710.63 4474.27 C 5564.63 4443.27 5402.63 4458.27 5235.63 4519.27 C 5071.63 4579.27 4965.63 4653.27 4758.63 4854.27 C 4640.63 4968.27 4612.63 4990.27 4587.63 4990.27 C 4559.63 4990.27 4539.63 4970.27 4399.63 4807.27 C 4312.63 4707.27 4215.63 4595.27 4183.63 4559.27 C 4103.63 4469.27 4103.63 4443.27 4183.63 4353.27 C 4313.63 4204.27 4590.63 3988.27 4754.63 3906.27 C 4901.63 3832.27 5078.63 3775.27 5255.63 3744.27 C 5397.63 3718.27 5730.63 3721.27 5885.63 3748.27 C 6114.63 3789.27 6350.63 3887.27 6535.63 4018.27 C 6654.63 4102.27 6831.63 4278.27 6912.63 4393.27 C 7042.63 4577.27 7143.63 4820.27 7186.63 5051.27 C 7207.63 5160.27 7208.63 5200.27 7212.63 5900.27 C 7215.63 6421.27 7213.63 6662.27 7205.63 6728.27 C 7152.63 7155.27 6895.63 7490.27 6509.63 7635.27 C 6361.63 7691.27 6277.63 7700.27 5921.63 7700.27 L 5595.63 7700.27 L 5595.63 7883.27 C 5595.63 8125.27 5578.63 8187.27 5491.63 8275.27 C 5418.63 8347.27 5276.63 8382.27 5146.63 8359.27 Z" style="paint-order: fill; stroke-linecap: round; stroke-linejoin: round; stroke-width: 10px;"/>
    <path id="pzc51kSXR" d="M 3610.63 8323.27 C 3452.63 8309.27 3266.63 8263.27 3125.63 8203.27 C 2812.63 8069.27 2530.63 7798.27 2380.63 7486.27 C 2277.63 7272.27 2235.63 7075.27 2235.63 6810.27 C 2235.63 6468.27 2310.63 6208.27 2484.63 5947.27 C 2561.63 5833.27 2696.63 5684.27 2803.63 5596.27 C 2861.63 5549.27 2879.63 5540.27 2911.63 5540.27 C 2948.63 5540.27 2954.63 5545.27 3055.63 5661.27 C 3113.63 5728.27 3206.63 5837.27 3262.63 5904.27 C 3398.63 6065.27 3398.63 6060.27 3264.63 6188.27 C 3110.63 6334.27 3043.63 6440.27 2993.63 6617.27 C 2964.63 6717.27 2962.63 6892.27 2989.63 6990.27 C 3055.63 7237.27 3241.63 7446.27 3475.63 7538.27 C 3613.63 7592.27 3625.63 7593.27 4041.63 7599.27 L 4432.63 7605.27 L 4501.63 7640.27 C 4625.63 7704.27 4680.63 7805.27 4678.63 7970.27 C 4677.63 8130.27 4617.63 8238.27 4497.63 8297.27 L 4440.63 8325.27 L 4045.63 8326.27 C 3828.63 8327.27 3632.63 8325.27 3610.63 8323.27 Z" style="paint-order: fill; stroke-linecap: round; stroke-linejoin: round; stroke-width: 10px;"/>
  </g>
</svg>